# xmcd
#
# Track frame offsets: 
#        150
#        12754
#        29758
#        47006
#        60658
#        76445
#        91820
#        107006
#        122277
#        139863
#
# Disc length: 2065 seconds
#
# Revision: 4
# Processed by: cddbd v1.5PL3 Copyright (c) Steve Scherf et al.
# Submitted via: ExactAudioCopy v0.95a3
#
DISCID=78080f0a
DTITLE=Skip Ewing - Until I Found You
DYEAR=1997
DGENRE=
TTITLE0=All That Matters To Me
TTITLE1=Mary Go Round
TTITLE2=Sliver Of The Moon
TTITLE3=The Hole
TTITLE4=Until I Found You
TTITLE5=Answer To My Prayer
TTITLE6=Make Time
TTITLE7=Some Fools
TTITLE8=I Got A Job To Do
TTITLE9=Half Life Of A Heart
EXTD=
EXTT0=
EXTT1=
EXTT2=
EXTT3=
EXTT4=
EXTT5=
EXTT6=
EXTT7=
EXTT8=
EXTT9=
PLAYORDER=
